<?xml version="1.0" encoding="UTF-8"?>
<svg version="1.1" xmlns="http://www.w3.org/2000/svg" width="50" height="50">
<path d="M0 0 C3 0.125 3 0.125 4 1.125 C4.04063832 2.79117115 4.042721 4.45888095 4 6.125 C4.99 6.125 5.98 6.125 7 6.125 C7.67099984 8.72811992 8.33695338 11.33235398 9 13.9375 C9.28617188 15.04448242 9.28617188 15.04448242 9.578125 16.17382812 C10.35262914 19.23035341 11 21.95873478 11 25.125 C12.32 25.125 13.64 25.125 15 25.125 C15 27.765 15 30.405 15 33.125 C17.31 33.455 19.62 33.785 22 34.125 C22.33 35.115 22.66 36.105 23 37.125 C7.82 37.125 -7.36 37.125 -23 37.125 C-22.67 36.135 -22.34 35.145 -22 34.125 C-18.535 33.63 -18.535 33.63 -15 33.125 C-15 30.485 -15 27.845 -15 25.125 C-13.68 25.125 -12.36 25.125 -11 25.125 C-9.57364259 18.80827435 -8.24702151 12.47950323 -7 6.125 C-6.01 6.125 -5.02 6.125 -4 6.125 C-4.020625 5.320625 -4.04125 4.51625 -4.0625 3.6875 C-3.97206764 -0.02022692 -3.7522321 0.156343 0 0 Z M-1 3.125 C-1.33 4.115 -1.66 5.105 -2 6.125 C-0.68 6.125 0.64 6.125 2 6.125 C1.67 5.135 1.34 4.145 1 3.125 C0.34 3.125 -0.32 3.125 -1 3.125 Z M-5 9.125 C-5 10.115 -5 11.105 -5 12.125 C-1.7 12.125 1.6 12.125 5 12.125 C5 11.135 5 10.145 5 9.125 C1.7 9.125 -1.6 9.125 -5 9.125 Z M-5 15.125 C-5.99 18.425 -6.98 21.725 -8 25.125 C-2.72 25.125 2.56 25.125 8 25.125 C7.01 21.825 6.02 18.525 5 15.125 C1.7 15.125 -1.6 15.125 -5 15.125 Z M-12 27.125 C-11.67 29.435 -11.34 31.745 -11 34.125 C-3.74 34.125 3.52 34.125 11 34.125 C11.33 31.815 11.66 29.505 12 27.125 C4.08 27.125 -3.84 27.125 -12 27.125 Z " fill="#000000" transform="translate(25,3.875)"/>
<path d="M0 0 C0.82971817 -0.0033284 1.65943634 -0.0066568 2.51429749 -0.01008606 C4.26855922 -0.01514686 6.02283058 -0.01749465 7.77709961 -0.01733398 C10.45898309 -0.0195201 13.14045494 -0.03768355 15.82226562 -0.05664062 C17.52734234 -0.0595748 19.23242102 -0.06155943 20.9375 -0.0625 C21.73864731 -0.06968552 22.53979462 -0.07687103 23.36521912 -0.08427429 C27.22442857 -0.06846009 30.26896475 -0.03293512 33.53515625 2.16796875 C33.53515625 2.82796875 33.53515625 3.48796875 33.53515625 4.16796875 C18.35515625 4.16796875 3.17515625 4.16796875 -12.46484375 4.16796875 C-12.13484375 3.17796875 -11.80484375 2.18796875 -11.46484375 1.16796875 C-7.62783864 -0.11103295 -3.99887224 0.00554058 0 0 Z " fill="#000000" transform="translate(14.46484375,41.83203125)"/>
</svg>
